# xmcd
#
# Track frame offsets: 
#        150
#        21206
#        42284
#        61573
#        84377
#        100194
#        120029
#        144024
#        162451
#        188448
#        210587
#        233340
#        254396
#
# Disc length: 3679 seconds
#
# Revision: 0
# Processed by: cddbd v1.5.2PL0 Copyright (c) Steve Scherf et al.
# Submitted via: ExactAudioCopyFreeDBPlugin 1.0
#
DISCID=8e0e5d0d
DTITLE=许茹芸 - 如果云知道
DYEAR=1900
DGENRE=A Cappella
TTITLE0=突然想爱你
TTITLE1=你是最爱
TTITLE2=舍不得
TTITLE3=只说给你听
TTITLE4=我有一帘幽梦
TTITLE5=我只能爱你
TTITLE6=秘密
TTITLE7=爱情电影
TTITLE8=北纬六十六
TTITLE9=破晓
TTITLE10=爱在黑夜
TTITLE11=Don"tSay Goodye
TTITLE12=恒星
EXTD=
EXTT0=
EXTT1=
EXTT2=
EXTT3=
EXTT4=
EXTT5=
EXTT6=
EXTT7=
EXTT8=
EXTT9=
EXTT10=
EXTT11=
EXTT12=
PLAYORDER=
